<svg width="20" height="20" xmlns="http://www.w3.org/2000/svg" xmlns:xlink="http://www.w3.org/1999/xlink"><defs><path id="a" d="M.315 0h15.12v15.12H.315z"/></defs><g fill="none" fill-rule="evenodd"><path d="M0 5.614C0 3.65 0 2.666.382 1.916A3.509 3.509 0 011.916.382C2.666 0 3.649 0 5.614 0h8.772c1.965 0 2.948 0 3.698.382a3.52 3.52 0 011.534 1.534C20 2.666 20 3.649 20 5.614v8.772c0 1.965 0 2.948-.382 3.698a3.509 3.509 0 01-1.534 1.534c-.75.382-1.733.382-3.698.382H5.614c-1.965 0-2.948 0-3.698-.382a3.509 3.509 0 01-1.534-1.534C0 17.334 0 16.351 0 14.386V5.614z" fill="#787878" fill-rule="nonzero"/><path stroke="#787878" stroke-width=".5" d="M.25 5.614v8.772c0 2.406.047 2.98.355 3.585a3.259 3.259 0 001.424 1.424c.605.308 1.179.355 3.585.355h8.772c2.406 0 2.98-.047 3.585-.355a3.259 3.259 0 001.424-1.424c.308-.605.355-1.179.355-3.585V5.614c0-2.406-.047-2.98-.355-3.585A3.259 3.259 0 0017.97.605C17.366.297 16.792.25 14.386.25H5.614c-2.406 0-2.98.047-3.585.355A3.259 3.259 0 00.605 2.03C.297 2.634.25 3.208.25 5.614z"/><g transform="translate(2 2)"><mask id="b" fill="#fff"><use xlink:href="#a"/></mask><g mask="url(#b)" stroke="#FFF" stroke-width="1.26"><path d="M2.205 9.256h1.283a.63.63 0 01.383.13l2.936 2.248c.25.192.599.162.764-.107.374-.606.934-1.866.934-3.967 0-2.1-.56-3.36-.934-3.967-.165-.27-.513-.3-.764-.107L3.87 5.734a.63.63 0 01-.383.13H2.205a.63.63 0 00-.63.63v2.132c0 .348.282.63.63.63z" fill="#FFF"/><path d="M12.285 3.15s1.26 1.26 1.26 4.41c0 3.15-1.26 4.41-1.26 4.41m-1.89-6.93s.63.63.63 2.52c0 1.89-.63 2.52-.63 2.52" stroke-linecap="round" stroke-linejoin="round"/></g></g></g></svg>